# xmcd
#
# Track frame offsets:
#	150
#	21385
#	38675
#	55233
#	73275
#	86690
#	104028
#	119883
#	139008
#	160265
#	180007
#	200124
#	219941
#	240514
#	256461
#	289363
#
# Disc length: 3870 seconds
#
# Revision: 0
# Processed by: cddbd v1.5.1PL0 Copyright (c) Steve Scherf et al.
# Submitted via: audiograbber 1.83.01
#
DISCID=f60f1c10
DTITLE=Faith Hill - Sc8868
DYEAR=1900
DGENRE=
TTITLE0=Just To Hear You Say That You Love Me
TTITLE1=If My Heart Had Wings
TTITLE2=This Kiss
TTITLE3=Cry
TTITLE4=Wild One
TTITLE5=There You'll Be
TTITLE6=It Matters To Me
TTITLE7=When The Lights Go Down
TTITLE8=The Secret Of Life
TTITLE9=Piece Of My Heart
TTITLE10=Let's Make Love
TTITLE11=Breathe
TTITLE12=Let Me Let Go
TTITLE13=The Way You Love Me
TTITLE14=There Will Come A Day
TTITLE15=Data Track
EXTD=
EXTT0=
EXTT1=
EXTT2=
EXTT3=
EXTT4=
EXTT5=
EXTT6=
EXTT7=
EXTT8=
EXTT9=
EXTT10=
EXTT11=
EXTT12=
EXTT13=
EXTT14=
EXTT15=
PLAYORDER=
